<svg xmlns="http://www.w3.org/2000/svg" version="1.1" xmlns:xlink="http://www.w3.org/1999/xlink" xmlns:svgjs="http://svgjs.dev/svgjs" width="2000" height="707" viewBox="0 0 2000 707"><g transform="matrix(1,0,0,1,-1.2121212121212466,-1.0991571147977197)"><svg viewBox="0 0 396 140" data-background-color="#ffffff" preserveAspectRatio="xMidYMid meet" height="707" width="2000" xmlns="http://www.w3.org/2000/svg" xmlns:xlink="http://www.w3.org/1999/xlink"><g id="tight-bounds" transform="matrix(1,0,0,1,0.2400000000000091,0.21765487421737362)"><svg viewBox="0 0 395.52 139.56469025156525" height="139.56469025156525" width="395.52"><g><svg viewBox="0 0 692.7073841738829 244.43135999999998" height="139.56469025156525" width="395.52"><g transform="matrix(1,0,0,1,297.18738417388295,47.00584259037781)"><svg viewBox="0 0 395.52 150.41967481924436" height="150.41967481924436" width="395.52"><g id="textblocktransform"><svg viewBox="0 0 395.52 150.41967481924436" height="150.41967481924436" width="395.52" id="textblock"><g><svg viewBox="0 0 395.52 89.38820409339868" height="89.38820409339868" width="395.52"><g transform="matrix(1,0,0,1,0,0)"><svg width="395.52" viewBox="1.85 -38.4 173.43 39.2" height="89.38820409339868" data-palette-color="#d41a2d"><path d="M11.35 0.8L11.35 0.8Q6 0.8 3.93-2.1 1.85-5 1.85-12.5L1.85-12.5Q1.85-17.9 2.8-20.73 3.75-23.55 5.68-24.58 7.6-25.6 11.35-25.6 15.1-25.6 17.03-24.55 18.95-23.5 19.85-20.65 20.75-17.8 20.75-12.55L20.75-12.55Q20.75-12.25 20.75-11.95 20.75-11.65 19.58-11.4 18.4-11.15 16.75-11.15L16.75-11.15 9.05-11.15Q9.15-5.3 9.9-4.5L9.9-4.5Q10.35-4.1 11.35-4.1L11.35-4.1Q17.9-4.1 20.3-4.75L20.3-4.75Q20.4-4.8 20.45-4.8L20.45-4.8Q20.8-4.9 21.03-4.4 21.25-3.9 21.25-2.05 21.25-0.2 20.45 0L20.45 0Q18.4 0.8 11.35 0.8ZM9.05-19.05L9.05-19.05 9.05-15.15 14.1-15.15Q13.9-20.95 12.95-20.95L12.95-20.95Q11.25-20.95 10.15-20.45 9.05-19.95 9.05-19.05ZM30.7 0.8L30.7 0.8Q27 0.8 25.27-2.23 23.55-5.25 23.55-12.75 23.55-20.25 25.72-22.93 27.9-25.6 33.95-25.6L33.95-25.6 36.35-25.6 36.35-37.6Q36.35-38.4 38.1-38.4 39.85-38.4 41-38.18 42.15-37.95 42.2-37.6L42.2-37.6 43.05-21.65 43.05 0Q43.05 0.3 43 0.4L43 0.4Q42.75 0.8 41.15 0.8 39.55 0.8 38.42 0.58 37.3 0.35 37.3 0L37.3 0 36.35-1.55Q34.9-0.6 34.3-0.2L34.3-0.2Q32.65 0.8 30.7 0.8ZM33.95-20.8Q32.1-20.8 31.42-19.28 30.75-17.75 30.75-14.13 30.75-10.5 30.77-9.35 30.8-8.2 30.85-6.7L30.85-6.7Q30.95-4 31.55-4L31.55-4Q33.35-4 36.35-5.8L36.35-5.8 36.35-20.8 33.95-20.8ZM54.5 0.8L54.5 0.8Q50.8 0.8 49.07-1.5 47.35-3.8 47.35-9.6L47.35-9.6 47.35-24.8Q47.35-25.6 49.17-25.6 51-25.6 52.75-25.35 54.5-25.1 54.5-24.8L54.5-24.8 54.55-9.6Q54.55-4 55.35-4L55.35-4Q57.15-4 60.15-5.8L60.15-5.8 60.15-24.8Q60.15-25.6 61.97-25.6 63.8-25.6 65.57-25.35 67.34-25.1 67.34-24.8L67.34-24.8 67.34 0Q67.34 0.3 67.25 0.4L67.25 0.4Q67.05 0.8 64.67 0.8 62.3 0.8 61.75 0L61.75 0 60.7-1.55Q57.2 0.8 54.5 0.8ZM70.64-24.95L70.64-24.95Q70.64-25.6 72.47-25.6 74.29-25.6 75.87-25.35 77.44-25.1 77.49-24.8L77.49-24.8 81.94-6.1 85.84-24.8Q86.04-25.6 87.44-25.6 88.84-25.6 89.79-25.5L89.79-25.5Q92.09-25.25 91.99-24.8L91.99-24.8 91.94-24.7 85.69 0Q85.49 0.8 83.77 0.8 82.04 0.8 80.12 0.55 78.19 0.3 78.09 0L78.09 0 70.69-24.7 70.69-24.8Q70.64-24.9 70.64-24.95ZM104.44 0.8L104.44 0.8Q99.09 0.8 97.02-2.1 94.94-5 94.94-12.5L94.94-12.5Q94.94-17.9 95.89-20.73 96.84-23.55 98.77-24.58 100.69-25.6 104.44-25.6 108.19-25.6 110.12-24.55 112.04-23.5 112.94-20.65 113.84-17.8 113.84-12.55L113.84-12.55Q113.84-12.25 113.84-11.95 113.84-11.65 112.67-11.4 111.49-11.15 109.84-11.15L109.84-11.15 102.14-11.15Q102.24-5.3 102.99-4.5L102.99-4.5Q103.44-4.1 104.44-4.1L104.44-4.1Q110.99-4.1 113.39-4.75L113.39-4.75Q113.49-4.8 113.54-4.8L113.54-4.8Q113.89-4.9 114.12-4.4 114.34-3.9 114.34-2.05 114.34-0.2 113.54 0L113.54 0Q111.49 0.8 104.44 0.8ZM102.14-19.05L102.14-19.05 102.14-15.15 107.19-15.15Q106.99-20.95 106.04-20.95L106.04-20.95Q104.34-20.95 103.24-20.45 102.14-19.95 102.14-19.05ZM122.89-24.7L123.89-22.8Q127.99-25.6 129.31-25.6 130.64-25.6 131.71-25.1 132.79-24.6 133.29-24.1L133.29-24.1 133.74-23.65Q132.99-20.45 132.59-19.65 132.19-18.85 131.51-18.85 130.84-18.85 129.79-19.4 128.74-19.95 127.89-19.95 127.04-19.95 124.49-18.4L124.49-18.4 124.49 0Q124.49 0.3 124.39 0.4L124.39 0.4Q124.19 0.8 122.54 0.8 120.89 0.8 119.46 0.55 118.04 0.3 118.04 0L118.04 0 118.04-24.8Q118.04-25.6 120.29-25.6 122.54-25.6 122.89-24.8L122.89-24.8 122.89-24.7ZM149.44-18.9L149.44-18.9 149.13-19 147.23-19.95Q145.09-20.8 143.53-20.8L143.53-20.8Q141.28-20.7 141.28-18.65L141.28-18.65Q141.28-17.85 142.16-17.35 143.03-16.85 143.59-16.57 144.13-16.3 145.19-15.8L145.19-15.8Q148.94-14.2 150.76-12.25 152.59-10.3 152.59-8.4L152.59-8.4Q152.59-4.25 150.38-1.73 148.19 0.8 144.41 0.8 140.63 0.8 138.48-0.2 136.34-1.2 134.88-3.05L134.88-3.05Q134.69-3.15 134.69-3.35 134.69-3.55 134.76-3.85 134.84-4.15 135.94-5.48 137.03-6.8 137.69-6.8L137.69-6.8Q137.88-6.8 138.09-6.6L138.09-6.6Q140.73-4.5 143.23-4.5L143.23-4.5Q144.63-4.5 145.34-5.3 146.03-6.1 146.03-7.05 146.03-8 145.23-8.6 144.44-9.2 143.26-9.78 142.09-10.35 141.98-10.4 141.88-10.45 141.71-10.55 141.53-10.65 141.38-10.7L141.38-10.7Q138.84-11.95 137.06-13.83 135.28-15.7 135.28-18L135.28-18Q135.28-22 137.36-23.8 139.44-25.6 143.94-25.6L143.94-25.6Q145.63-25.6 147.19-25.2L147.19-25.2Q149.28-24.65 150.19-23.9L150.19-23.9 150.23-23.9Q150.63-23.65 150.71-23.3 150.78-22.95 150.63-21.8L150.63-21.8Q150.13-18.9 149.44-18.9ZM165.38 0.8L165.38 0.8Q160.03 0.8 157.96-2.1 155.88-5 155.88-12.5L155.88-12.5Q155.88-17.9 156.83-20.73 157.78-23.55 159.71-24.58 161.63-25.6 165.38-25.6 169.13-25.6 171.06-24.55 172.98-23.5 173.88-20.65 174.78-17.8 174.78-12.55L174.78-12.55Q174.78-12.25 174.78-11.95 174.78-11.65 173.61-11.4 172.43-11.15 170.78-11.15L170.78-11.15 163.08-11.15Q163.18-5.3 163.93-4.5L163.93-4.5Q164.38-4.1 165.38-4.1L165.38-4.1Q171.93-4.1 174.33-4.75L174.33-4.75Q174.43-4.8 174.48-4.8L174.48-4.8Q174.83-4.9 175.06-4.4 175.28-3.9 175.28-2.05 175.28-0.2 174.48 0L174.48 0Q172.43 0.8 165.38 0.8ZM163.08-19.05L163.08-19.05 163.08-15.15 168.13-15.15Q167.93-20.95 166.98-20.95L166.98-20.95Q165.28-20.95 164.18-20.45 163.08-19.95 163.08-19.05Z" opacity="1" transform="matrix(1,0,0,1,0,0)" fill="#d41a2d" class="wordmark-text-0" data-fill-palette-color="primary" id="text-0"></path></svg></g></svg></g><g transform="matrix(1,0,0,1,0,110.49061376295188)"><svg viewBox="0 0 232.209792 39.92906105629248" height="39.92906105629248" width="232.209792"><g transform="matrix(1,0,0,1,0,0)"><svg width="232.209792" viewBox="2.25 -38.4 293.07416666664 50.4" height="39.92906105629248" data-palette-color="#d41a2d"><path d="M9-21.55L9 0Q9 0.3 8.9 0.4L8.9 0.4Q8.7 0.8 7.05 0.8 5.4 0.8 3.83 0.55 2.25 0.3 2.25 0L2.25 0 2.25-37.6Q2.25-38.4 4-38.4 5.75-38.4 6.9-38.18 8.05-37.95 8.1-37.6L8.1-37.6 9-21.55ZM22.45 0.8L22.45 0.8Q17.1 0.8 15.02-2.1 12.95-5 12.95-12.5L12.95-12.5Q12.95-17.9 13.9-20.73 14.85-23.55 16.77-24.58 18.7-25.6 22.45-25.6 26.2-25.6 28.12-24.55 30.05-23.5 30.95-20.65 31.85-17.8 31.85-12.55L31.85-12.55Q31.85-12.25 31.85-11.95 31.85-11.65 30.67-11.4 29.5-11.15 27.85-11.15L27.85-11.15 20.15-11.15Q20.25-5.3 21-4.5L21-4.5Q21.45-4.1 22.45-4.1L22.45-4.1Q29-4.1 31.4-4.75L31.4-4.75Q31.5-4.8 31.55-4.8L31.55-4.8Q31.9-4.9 32.12-4.4 32.35-3.9 32.35-2.05 32.35-0.2 31.55 0L31.55 0Q29.5 0.8 22.45 0.8ZM20.15-19.05L20.15-19.05 20.15-15.15 25.2-15.15Q25-20.95 24.05-20.95L24.05-20.95Q22.35-20.95 21.25-20.45 20.15-19.95 20.15-19.05ZM48.3 0L47.5-1.55Q44.9 0.8 42.87 0.8 40.85 0.8 39.6 0.53 38.35 0.25 37.35-0.68 36.35-1.6 35.95-3.35 35.55-5.1 35.55-8L35.55-8Q35.55-12.05 39.5-13.55L39.5-13.55 46.65-15.4Q46.6-18.65 46-19.6 45.4-20.55 43.4-20.55 41.4-20.55 39.95-19.9L39.95-19.9 38.2-19.2 38.15-19.2Q37.7-18.95 37.35-19.6L37.35-19.6Q36.45-21.5 36.45-22.58 36.45-23.65 36.62-23.78 36.8-23.9 36.8-23.95L36.8-23.95Q39.3-25.6 43.27-25.6 47.25-25.6 49.4-24.55 51.55-23.5 52.52-20.73 53.5-17.95 53.5-12.5L53.5-12.5 53.4 0Q53.4 0.3 53.3 0.4L53.3 0.4Q53.1 0.8 51.4 0.8L51.4 0.8Q48.3 0.8 48.3 0L48.3 0ZM41.1-7.9L41.1-7.9Q41.1-4.3 43.2-4.1L43.2-4.1Q44.65-4.1 45.3-4.6L45.3-4.6Q46.7-5.55 46.7-11.7L46.7-11.7Q44.1-11.35 42.6-10.28 41.1-9.2 41.1-7.9ZM62.64-24.7L63.64-22.8Q67.74-25.6 69.07-25.6 70.39-25.6 71.47-25.1 72.54-24.6 73.04-24.1L73.04-24.1 73.49-23.65Q72.74-20.45 72.34-19.65 71.94-18.85 71.27-18.85 70.59-18.85 69.54-19.4 68.49-19.95 67.64-19.95 66.79-19.95 64.24-18.4L64.24-18.4 64.24 0Q64.24 0.3 64.14 0.4L64.14 0.4Q63.94 0.8 62.29 0.8 60.64 0.8 59.22 0.55 57.79 0.3 57.79 0L57.79 0 57.79-24.8Q57.79-25.6 60.04-25.6 62.29-25.6 62.64-24.8L62.64-24.8 62.64-24.7ZM89.04-25.6L89.04-25.6Q92.74-25.6 94.47-23.3 96.19-21 96.19-15.2L96.19-15.2 96.19 0Q96.19 0.3 96.14 0.4L96.14 0.4Q95.89 0.8 94.22 0.8 92.54 0.8 90.79 0.55 89.04 0.3 89.04 0L89.04 0 88.99-15.2Q88.99-20.8 88.19-20.8L88.19-20.8Q86.39-20.8 83.39-19L83.39-19 83.39 0Q83.39 0.3 83.34 0.4L83.34 0.4Q83.09 0.8 81.42 0.8 79.74 0.8 77.97 0.55 76.19 0.3 76.19 0L76.19 0 76.19-24.8Q76.19-25.6 78.19-25.6L78.19-25.6Q81.34-25.6 81.79-24.8L81.79-24.8Q81.79-24.7 81.84-24.7L81.84-24.7 82.79-22.8Q86.99-25.6 89.04-25.6ZM126.14 0L125.34-1.55Q122.74 0.8 120.71 0.8 118.69 0.8 117.44 0.53 116.19 0.25 115.19-0.68 114.19-1.6 113.79-3.35 113.39-5.1 113.39-8L113.39-8Q113.39-12.05 117.34-13.55L117.34-13.55 124.49-15.4Q124.44-18.65 123.84-19.6 123.24-20.55 121.24-20.55 119.24-20.55 117.79-19.9L117.79-19.9 116.04-19.2 115.99-19.2Q115.54-18.95 115.19-19.6L115.19-19.6Q114.29-21.5 114.29-22.58 114.29-23.65 114.46-23.78 114.64-23.9 114.64-23.95L114.64-23.95Q117.14-25.6 121.11-25.6 125.09-25.6 127.24-24.55 129.39-23.5 130.36-20.73 131.34-17.95 131.34-12.5L131.34-12.5 131.24 0Q131.24 0.3 131.14 0.4L131.14 0.4Q130.94 0.8 129.24 0.8L129.24 0.8Q126.14 0.8 126.14 0L126.14 0ZM118.94-7.9L118.94-7.9Q118.94-4.3 121.04-4.1L121.04-4.1Q122.49-4.1 123.14-4.6L123.14-4.6Q124.54-5.55 124.54-11.7L124.54-11.7Q121.94-11.35 120.44-10.28 118.94-9.2 118.94-7.9ZM148.48-25.6L148.48-25.6Q152.18-25.6 153.91-23.3 155.63-21 155.63-15.2L155.63-15.2 155.63 0Q155.63 0.3 155.58 0.4L155.58 0.4Q155.33 0.8 153.66 0.8 151.98 0.8 150.23 0.55 148.48 0.3 148.48 0L148.48 0 148.43-15.2Q148.43-20.8 147.63-20.8L147.63-20.8Q145.83-20.8 142.83-19L142.83-19 142.83 0Q142.83 0.3 142.78 0.4L142.78 0.4Q142.53 0.8 140.86 0.8 139.18 0.8 137.41 0.55 135.63 0.3 135.63 0L135.63 0 135.63-24.8Q135.63-25.6 137.63-25.6L137.63-25.6Q140.78-25.6 141.23-24.8L141.23-24.8Q141.23-24.7 141.28-24.7L141.28-24.7 142.23-22.8Q146.43-25.6 148.48-25.6ZM165.78 0.8L165.78 0.8Q162.08 0.8 160.36-2.23 158.63-5.25 158.63-12.75 158.63-20.25 160.81-22.93 162.98-25.6 169.03-25.6L169.03-25.6 171.43-25.6 171.43-37.6Q171.43-38.4 173.18-38.4 174.93-38.4 176.08-38.18 177.23-37.95 177.28-37.6L177.28-37.6 178.13-21.65 178.13 0Q178.13 0.3 178.08 0.4L178.08 0.4Q177.83 0.8 176.23 0.8 174.63 0.8 173.51 0.58 172.38 0.35 172.38 0L172.38 0 171.43-1.55Q169.98-0.6 169.38-0.2L169.38-0.2Q167.73 0.8 165.78 0.8ZM169.03-20.8Q167.18-20.8 166.51-19.28 165.83-17.75 165.83-14.13 165.83-10.5 165.86-9.35 165.88-8.2 165.93-6.7L165.93-6.7Q166.03-4 166.63-4L166.63-4Q168.43-4 171.43-5.8L171.43-5.8 171.43-20.8 169.03-20.8ZM206.33 2.4L206.33 2.4 202.08 2.45Q198.98 2.45 198.35 1.95 197.73 1.45 197.73 0.75 197.73 0.05 197.98-0.8L197.98-0.8 199.73-6.1Q197.33-7.15 196.28-9.55 195.23-11.95 195.23-15.55 195.23-19.15 195.68-21 196.13-22.85 197.4-23.9 198.68-24.95 200.43-25.28 202.18-25.6 205.23-25.6L205.23-25.6 216.13-25.6Q216.93-25.6 216.93-23.6L216.93-23.6Q216.93-22.6 216.13-22.4L216.13-22.4 215.98-22.35 213.83-21.95Q215.23-19.65 215.23-16L215.23-16Q215.23-10.25 213-7.73 210.78-5.2 205.23-5.2L205.23-5.2 204.13-5.2 203.68-2.85Q209.33-2.75 211.03-2.45 212.73-2.15 213.38-1.75 214.03-1.35 214.6-0.55 215.18 0.25 215.3 1.3 215.43 2.35 215.43 4.05L215.43 4.05Q215.43 8.2 213.13 10.1 210.83 12 204.93 12L204.93 12Q202.18 12 198.03 11.2L198.03 11.2Q197.28 11.05 197.28 8.65 197.28 6.25 197.98 6.25L197.98 6.25Q197.98 6.25 198.03 6.25L198.03 6.25 198.08 6.25Q202.58 6.75 205.25 6.75 207.93 6.75 208.58 6.35 209.23 5.95 209.23 4.38 209.23 2.8 208.65 2.6 208.08 2.4 206.33 2.4ZM206.48-20.8Q203.23-20.8 202.55-20.13 201.88-19.45 201.88-16.38 201.88-13.3 202.15-11.93 202.43-10.55 202.73-10.33 203.03-10.1 204.2-10.1 205.38-10.1 206.1-10.18 206.83-10.25 207.43-10.9 208.03-11.55 208.1-12.6 208.18-13.65 208.18-15.9 208.18-18.15 207.9-19.28 207.63-20.4 207.33-20.6 207.03-20.8 206.48-20.8L206.48-20.8ZM225.02-24.7L226.02-22.8Q230.12-25.6 231.45-25.6 232.77-25.6 233.85-25.1 234.92-24.6 235.42-24.1L235.42-24.1 235.87-23.65Q235.12-20.45 234.72-19.65 234.32-18.85 233.65-18.85 232.97-18.85 231.92-19.4 230.87-19.95 230.02-19.95 229.17-19.95 226.62-18.4L226.62-18.4 226.62 0Q226.62 0.3 226.52 0.4L226.52 0.4Q226.32 0.8 224.67 0.8 223.02 0.8 221.6 0.55 220.17 0.3 220.17 0L220.17 0 220.17-24.8Q220.17-25.6 222.42-25.6 224.67-25.6 225.02-24.8L225.02-24.8 225.02-24.7ZM238.17-12.5L238.17-12.5Q238.17-17.95 239.12-20.75 240.07-23.55 242.12-24.58 244.17-25.6 248.17-25.6 252.17-25.6 254.22-24.58 256.27-23.55 257.22-20.75 258.17-17.95 258.17-12.5L258.17-12.5Q258.17-5 256.02-2.1 253.87 0.8 248.17 0.8 242.47 0.8 240.32-2.1 238.17-5 238.17-12.5ZM244.97-12.5L244.97-12.5Q244.97-4.1 246.57-4.1L246.57-4.1Q248.77-4.1 249.82-4.8L249.82-4.8Q250.37-5.2 250.57-6.25L250.57-6.25Q250.97-8.35 250.97-12.5L250.97-12.5Q250.97-20.8 249.37-20.8L249.37-20.8Q246.37-20.8 245.67-19.43 244.97-18.05 244.97-12.5ZM261.42-24.95L261.42-24.95Q261.42-25.6 263.24-25.6 265.07-25.6 266.64-25.35 268.22-25.1 268.27-24.8L268.27-24.8 272.72-7.25 275.67-20.8Q275.67-21.3 276.22-21.45L276.22-21.45Q276.82-21.6 277.72-21.6 278.62-21.6 280.17-21.38 281.72-21.15 281.82-20.8L281.82-20.8 285.27-7.15 289.17-24.8Q289.37-25.6 290.77-25.6 292.17-25.6 293.12-25.5L293.12-25.5Q295.42-25.25 295.32-24.8L295.32-24.8 295.27-24.7 289.02 0Q288.82 0.8 287.09 0.8 285.37 0.8 283.44 0.55 281.52 0.3 281.42 0L281.42 0 278.72-9 276.47 0Q276.27 0.8 274.54 0.8 272.82 0.8 270.89 0.55 268.97 0.3 268.87 0L268.87 0 261.47-24.7 261.47-24.8Q261.42-24.9 261.42-24.95Z" opacity="1" transform="matrix(1,0,0,1,0,0)" fill="#d41a2d" class="slogan-text-1" data-fill-palette-color="secondary" id="text-1"></path></svg></g></svg></g></svg></g></svg></g><g><svg viewBox="0 0 244.43135999999998 244.43135999999998" height="244.43135999999998" width="244.43135999999998"><g><svg viewBox="0 0 244.43135999999998 244.43135999999998" height="244.43135999999998" width="244.43135999999998"><g transform="matrix(1,0,0,1,64.60265593644992,64.60265593644992)"><svg viewBox="0 0 115.22604812710014 115.22604812710014" height="115.22604812710014" width="115.22604812710014"><g><svg xmlns="http://www.w3.org/2000/svg" xmlns:xlink="http://www.w3.org/1999/xlink" version="1.1" x="0" y="0" viewBox="5.5 5.5 53 53" enable-background="new 0 0 64 64" xml:space="preserve" height="115.22604812710014" width="115.22604812710014" class="icon-cg-0" data-fill-palette-color="accent" id="cg-0"><g fill="#d41a2d" data-fill-palette-color="accent"><path d="M58 5.5H6C5.724 5.5 5.5 5.724 5.5 6S5.724 6.5 6 6.5h3.5V42c0 0.276 0.224 0.5 0.5 0.5h21.5v11.232l-5.777 3.852c-0.23 0.153-0.292 0.464-0.139 0.693 0.152 0.229 0.462 0.291 0.693 0.139l5.223-3.482V58c0 0.276 0.224 0.5 0.5 0.5s0.5-0.224 0.5-0.5v-3.066l5.223 3.482C37.808 58.473 37.904 58.5 38 58.5c0.161 0 0.319-0.078 0.416-0.223 0.153-0.229 0.091-0.54-0.139-0.693L32.5 53.732V42.5H54c0.276 0 0.5-0.224 0.5-0.5V6.5H58c0.276 0 0.5-0.224 0.5-0.5S58.276 5.5 58 5.5zM53.5 41.5h-43v-35h43V41.5z" fill="#d41a2d" data-fill-palette-color="accent"></path></g></svg></g></svg></g><g id="text-0"><path d="M39.904 87.354v0c-1.422 3.901-3.463 6.22-6.124 6.958-2.663 0.745-6.725 0.122-12.186-1.869v0c-3.933-1.434-6.803-2.874-8.608-4.319-1.808-1.439-2.826-2.995-3.055-4.668-0.236-1.675 0.145-3.88 1.141-6.614 0.994-2.727 2.127-4.654 3.399-5.779 1.278-1.123 3.076-1.634 5.394-1.532 2.311 0.1 5.377 0.846 9.198 2.24v0c0.216 0.079 0.436 0.159 0.659 0.24 0.216 0.079 0.26 0.581 0.131 1.507-0.127 0.919-0.411 1.982-0.851 3.188v0l-3.065 8.408c4.281 1.479 6.813 2.05 7.598 1.711v0c0.415-0.22 0.754-0.694 1.019-1.422v0c1.738-4.766 2.686-8.111 2.846-10.036v0c-0.006-0.084-0.004-0.142 0.008-0.175v0c0.021-0.282 0.242-0.439 0.662-0.472 0.427-0.03 1.312 0.2 2.656 0.69 1.35 0.492 1.991 1.057 1.923 1.693v0c0.041 1.701-0.874 5.118-2.745 10.251zM17.303 81.966v0l4.258 1.552 2.011-5.516c-4.274-1.395-6.538-1.745-6.791-1.05v0c-0.452 1.239-0.64 2.325-0.565 3.259 0.069 0.931 0.431 1.516 1.087 1.755z" fill="#d41a2d" data-fill-palette-color="accent"></path><path d="M53.375 64.069v0c-1.847 2.194-4.099 3.048-6.755 2.562-2.656-0.485-6.208-2.6-10.654-6.344-4.446-3.744-6.918-6.929-7.415-9.555-0.498-2.627 0.762-5.731 3.777-9.312v0l1.8-2.138-10.672-8.987c-0.475-0.4-0.277-1.118 0.595-2.153 0.876-1.041 1.667-1.844 2.372-2.409 0.709-0.571 1.181-0.785 1.415-0.642v0l14.813 11.187 19.255 16.214c0.176 0.148 0.282 0.261 0.318 0.337v0c0.114 0.352-0.229 1.003-1.028 1.953-0.8 0.95-1.548 1.702-2.243 2.257-0.691 0.549-1.14 0.737-1.349 0.561v0l-2.091-0.311c-0.163 1.331-0.275 2.277-0.336 2.837v0c-0.23 1.476-0.83 2.79-1.802 3.943zM36.596 45.013c-0.921 1.094-1.1 2.221-0.535 3.381 0.57 1.164 1.928 2.65 4.074 4.457 2.151 1.811 3.575 2.997 4.271 3.556 0.691 0.555 1.494 1.194 2.408 1.918v0c1.651 1.29 2.627 1.756 2.928 1.398v0c0.899-1.067 1.563-2.939 1.992-5.616v0l-13.338-11.231z" fill="#d41a2d" data-fill-palette-color="accent"></path><path d="M77.621 43.234v0c-2.489 1.424-4.756 1.692-6.8 0.803-2.047-0.879-4.186-3.269-6.417-7.169v0l-8.775-15.334c-0.308-0.539 0.152-1.16 1.382-1.864 1.229-0.703 2.48-1.307 3.752-1.809 1.268-0.509 1.962-0.66 2.079-0.455v0l8.829 15.304c2.156 3.767 3.503 5.496 4.042 5.188v0c1.211-0.693 2.479-2.222 3.803-4.588v0l-10.969-19.168c-0.308-0.539 0.152-1.16 1.382-1.864 1.223-0.7 2.48-1.307 3.77-1.82 1.293-0.523 1.998-0.681 2.116-0.475v0l14.316 25.019c0.114 0.2 0.154 0.354 0.12 0.462v0c0.023 0.349-0.765 0.981-2.365 1.896-1.593 0.911-2.728 1.203-3.406 0.875v0l-1.957-0.954c-1.451 2.929-3.086 4.913-4.902 5.953z" fill="#d41a2d" data-fill-palette-color="accent"></path><path d="M94.197 4.136v0c-0.072-0.497 0.589-0.847 1.984-1.049 1.402-0.203 2.721-0.296 3.957-0.277 1.236 0.011 1.888 0.132 1.956 0.362v0l8.245 20.771 1.368-22.164c0.063-0.637 0.633-1.033 1.71-1.189 1.07-0.155 1.977-0.248 2.72-0.278v0c1.789-0.062 2.67 0.085 2.645 0.442v0l-0.046 0.123-3.071 29.455c-0.063 0.637-0.757 1.051-2.084 1.243-1.319 0.191-2.731 0.297-4.237 0.318-1.506 0.021-2.313-0.077-2.422-0.295v0l-12.632-27.179-0.016-0.114c-0.047-0.078-0.072-0.134-0.077-0.169z" fill="#d41a2d" data-fill-palette-color="accent"></path><path d="M141.978 33.345v0c-4.066-0.841-6.657-2.524-7.773-5.049-1.123-2.527-1.097-6.636 0.08-12.328v0c0.848-4.1 1.856-7.148 3.023-9.144 1.161-1.997 2.553-3.231 4.175-3.7 1.623-0.477 3.86-0.42 6.709 0.169 2.843 0.588 4.913 1.429 6.212 2.524 1.297 1.102 2.063 2.806 2.298 5.114 0.237 2.301-0.057 5.443-0.88 9.426v0c-0.047 0.225-0.094 0.454-0.142 0.687-0.047 0.225-0.537 0.341-1.472 0.348-0.928 0.008-2.02-0.119-3.278-0.379v0l-8.763-1.812c-0.842 4.45-1.039 7.039-0.591 7.766v0c0.278 0.378 0.796 0.646 1.555 0.802v0c4.968 1.027 8.415 1.48 10.343 1.359v0c0.082-0.019 0.14-0.024 0.175-0.018v0c0.282-0.02 0.47 0.175 0.562 0.587 0.092 0.418-0.007 1.327-0.297 2.728-0.291 1.408-0.756 2.124-1.395 2.148v0c-1.677 0.287-5.191-0.122-10.541-1.228zM144.028 10.202v0l-0.918 4.438 5.75 1.189c0.76-4.432 0.777-6.722 0.053-6.872v0c-1.291-0.267-2.394-0.295-3.306-0.085-0.911 0.203-1.438 0.647-1.579 1.33z" fill="#d41a2d" data-fill-palette-color="accent"></path><path d="M181.53 17.255l-0.122 2.492c3.837-0.254 6.197-0.12 7.08 0.402 0.883 0.522 1.588 1.161 2.114 1.917 0.516 0.759 0.845 1.403 0.986 1.932v0l0.184 0.717c-1.768 1.841-2.942 2.95-3.522 3.329-0.583 0.369-1.099 0.42-1.55 0.154-0.445-0.263-0.91-0.785-1.396-1.567-0.486-0.782-1.012-1.339-1.577-1.672-0.571-0.337-2.011-0.491-4.322-0.463v0l-10.881 18.421c-0.117 0.198-0.228 0.311-0.333 0.338v0c-0.292 0.192-0.988-0.036-2.087-0.686-1.105-0.653-2.083-1.344-2.933-2.073-0.85-0.729-1.216-1.193-1.099-1.391v0l14.66-24.818c0.316-0.535 1.225-0.358 2.726 0.528 1.502 0.887 2.212 1.667 2.131 2.341v0z" fill="#d41a2d" data-fill-palette-color="accent"></path><path d="M210.523 51.223v0l-0.152-0.342-0.652-2.384c-0.623-1.673-1.338-2.959-2.145-3.856v0c-1.219-1.241-2.42-1.329-3.603-0.265v0c-0.457 0.411-0.604 0.998-0.441 1.762 0.162 0.765 0.308 1.375 0.436 1.832 0.124 0.461 0.316 1.124 0.577 1.987v0c1.018 2.989 1.44 5.514 1.266 7.575-0.179 2.066-0.815 3.591-1.91 4.575v0c-2.392 2.151-4.886 3.244-7.482 3.28-2.596 0.045-4.872-1.019-6.827-3.193-1.96-2.179-3.207-4.145-3.741-5.898-0.539-1.758-0.65-3.535-0.333-5.331v0c-0.05-0.171-0.018-0.307 0.096-0.41 0.114-0.103 0.28-0.21 0.499-0.322 0.209-0.112 0.979-0.195 2.31-0.248 1.332-0.053 2.168 0.11 2.509 0.488v0c0.103 0.114 0.148 0.28 0.137 0.497v0c0.163 2.613 0.893 4.64 2.19 6.082v0c0.728 0.809 1.502 1.206 2.324 1.19 0.821-0.006 1.506-0.256 2.055-0.75 0.55-0.495 0.788-1.127 0.716-1.897-0.068-0.774-0.239-1.648-0.513-2.621-0.279-0.978-0.431-1.508-0.457-1.588-0.02-0.085-0.046-0.203-0.078-0.352-0.036-0.155-0.079-0.286-0.127-0.393v0c-0.604-2.122-0.826-4.179-0.666-6.171 0.165-1.997 0.909-3.591 2.232-4.781v0c2.304-2.072 4.513-2.975 6.628-2.71 2.111 0.26 4.333 1.687 6.666 4.282v0c0.882 0.981 1.61 2.02 2.184 3.117v0c0.771 1.493 1.171 2.696 1.203 3.606v0l0.042 0.047c0.065 0.354 0.015 0.643-0.15 0.867-0.16 0.229-0.612 0.598-1.356 1.106v0c-1.932 1.212-3.078 1.618-3.437 1.219z" fill="#d41a2d" data-fill-palette-color="accent"></path><path d="M204.393 87.156v0c-1.601-3.83-1.675-6.919-0.221-9.267 1.451-2.354 4.858-4.652 10.221-6.894v0c3.863-1.615 6.947-2.504 9.254-2.666 2.304-0.169 4.108 0.283 5.411 1.357 1.31 1.071 2.526 2.949 3.648 5.633 1.12 2.678 1.594 4.862 1.424 6.552-0.177 1.693-1.152 3.287-2.924 4.784-1.765 1.494-4.524 3.026-8.277 4.595v0c-0.212 0.089-0.428 0.179-0.647 0.271-0.212 0.089-0.585-0.251-1.118-1.019-0.53-0.762-1.043-1.735-1.538-2.919v0l-3.452-8.257c-4.149 1.818-6.396 3.116-6.743 3.897v0c-0.155 0.443-0.083 1.022 0.215 1.737v0c1.957 4.68 3.529 7.782 4.718 9.304v0c0.062 0.057 0.099 0.102 0.113 0.134v0c0.176 0.221 0.12 0.487-0.167 0.796-0.293 0.312-1.1 0.743-2.419 1.295-1.326 0.554-2.18 0.575-2.561 0.061v0c-1.184-1.222-2.83-4.353-4.937-9.394zM224.652 75.782v0l-4.181 1.748 2.265 5.417c4.087-1.875 5.987-3.154 5.702-3.836v0c-0.509-1.217-1.107-2.142-1.796-2.777-0.682-0.637-1.346-0.822-1.99-0.552z" fill="#d41a2d" data-fill-palette-color="accent"></path><path d="M9.502 167.151v0c-1.383-3.818-1.309-6.843 0.221-9.075 1.536-2.233 4.981-4.319 10.335-6.258v0c3.858-1.397 6.917-2.119 9.178-2.165 2.259-0.054 4.004 0.472 5.236 1.577 1.227 1.114 2.325 3.01 3.294 5.686 0.969 2.677 1.328 4.836 1.077 6.479-0.249 1.649-1.274 3.163-3.075 4.542-1.801 1.379-4.578 2.749-8.331 4.107v0c-0.21 0.076-0.423 0.153-0.639 0.232-0.21 0.076-0.559-0.273-1.047-1.046-0.481-0.776-0.936-1.754-1.363-2.935v0l-2.983-8.237c-4.147 1.583-6.409 2.744-6.787 3.482v0c-0.172 0.426-0.129 0.997 0.13 1.711v0c1.694 4.678 3.084 7.789 4.169 9.333v0c0.059 0.06 0.094 0.107 0.107 0.139v0c0.162 0.223 0.096 0.481-0.199 0.774-0.304 0.288-1.115 0.671-2.434 1.148-1.319 0.478-2.154 0.457-2.505-0.061v0c-1.101-1.256-2.562-4.401-4.384-9.433zM29.869 156.993v0l-4.183 1.515 1.956 5.403c4.088-1.643 6.009-2.803 5.765-3.479v0c-0.44-1.214-0.979-2.15-1.619-2.809-0.637-0.652-1.277-0.862-1.919-0.63z" fill="#d41a2d" data-fill-palette-color="accent"></path><path d="M28.61 200.322v0c-1.803-2.149-2.248-4.463-1.332-6.944 0.915-2.481 3.553-5.551 7.914-9.212 4.361-3.661 7.851-5.51 10.47-5.549 2.618-0.039 5.404 1.7 8.355 5.217v0l1.756 2.092 10.47-8.788c0.465-0.39 1.126-0.075 1.983 0.946 0.852 1.015 1.492 1.913 1.919 2.693 0.432 0.776 0.561 1.265 0.385 1.468v0l-13.291 12.412-18.887 15.854c-0.176 0.148-0.305 0.233-0.387 0.256v0c-0.355 0.043-0.923-0.4-1.704-1.33-0.781-0.93-1.38-1.775-1.799-2.535-0.418-0.77-0.526-1.24-0.323-1.41v0l0.662-1.962c-1.265-0.378-2.158-0.644-2.679-0.799v0c-1.386-0.468-2.556-1.271-3.512-2.409zM49.832 187.346c-0.902-1.074-1.962-1.437-3.181-1.087-1.215 0.355-2.875 1.416-4.981 3.183-2.111 1.772-3.494 2.946-4.148 3.523-0.659 0.571-1.411 1.239-2.255 2.002v0c-1.522 1.378-2.137 2.24-1.846 2.588v0c0.879 1.048 2.574 2.003 5.084 2.866v0l13.083-10.982z" fill="#d41a2d" data-fill-palette-color="accent"></path><path d="M61.515 228.447v0c-2.433-1.396-3.785-3.176-4.055-5.342-0.27-2.166 0.69-5.159 2.881-8.978v0l8.613-15.017c0.302-0.527 1.055-0.444 2.26 0.246 1.205 0.691 2.335 1.448 3.391 2.271 1.056 0.823 1.527 1.334 1.412 1.534v0l-8.558 15.049c-2.114 3.686-2.908 5.68-2.381 5.982v0c1.186 0.68 3.106 0.993 5.76 0.939v0l10.763-18.767c0.302-0.527 1.055-0.444 2.26 0.246 1.198 0.687 2.335 1.448 3.409 2.281 1.081 0.837 1.564 1.355 1.449 1.555v0l-14.049 24.496c-0.115 0.2-0.224 0.314-0.329 0.342v0c-0.282 0.184-1.208-0.174-2.775-1.072-1.562-0.896-2.373-1.711-2.434-2.446v0l-0.155-2.128c-3.195 0.227-5.682-0.17-7.462-1.191z" fill="#d41a2d" data-fill-palette-color="accent"></path><path d="M98.205 212.886v0c0.07-0.483 0.793-0.625 2.167-0.425 1.367 0.199 2.631 0.479 3.791 0.839 1.154 0.359 1.734 0.655 1.743 0.888v0l1.94 21.798 7.464-20.426c0.24-0.579 0.884-0.791 1.934-0.638 1.05 0.153 1.928 0.32 2.634 0.5v0c1.699 0.438 2.486 0.821 2.361 1.148v0l-0.068 0.107-11.102 26.802c-0.24 0.579-1.008 0.773-2.306 0.584-1.291-0.188-2.648-0.481-4.071-0.879-1.416-0.397-2.145-0.715-2.188-0.954v0l-4.279-29.045 0.017-0.114c-0.03-0.082-0.043-0.144-0.037-0.185z" fill="#d41a2d" data-fill-palette-color="accent"></path><path d="M148.43 241.994v0c-3.977 0.821-6.96 0.315-8.949-1.519-1.99-1.841-3.561-5.549-4.712-11.125v0c-0.83-4.018-1.106-7.15-0.828-9.394 0.271-2.243 1.041-3.895 2.311-4.955 1.278-1.055 3.312-1.87 6.1-2.446 2.788-0.576 4.977-0.621 6.566-0.137 1.596 0.483 2.947 1.714 4.054 3.694 1.107 1.98 2.064 4.925 2.871 8.833v0c0.045 0.219 0.091 0.441 0.138 0.667 0.045 0.219-0.35 0.514-1.185 0.886-0.837 0.365-1.87 0.675-3.1 0.928v0l-8.58 1.772c0.973 4.331 1.797 6.736 2.474 7.216v0c0.397 0.232 0.968 0.27 1.712 0.117v0c4.872-1.006 8.15-1.936 9.834-2.79v0c0.068-0.05 0.119-0.078 0.153-0.085v0c0.244-0.129 0.49-0.026 0.737 0.308 0.242 0.342 0.504 1.2 0.788 2.573 0.284 1.374 0.144 2.197-0.42 2.47v0c-1.401 0.909-4.722 1.905-9.964 2.987zM141.296 220.382v0l0.9 4.357 5.627-1.162c-1.041-4.281-1.913-6.349-2.617-6.204v0c-1.264 0.261-2.268 0.661-3.012 1.199-0.737 0.537-1.036 1.14-0.898 1.81z" fill="#d41a2d" data-fill-palette-color="accent"></path><path d="M168.148 203.689l2.079 1.275c1.598-3.41 2.833-5.373 3.704-5.888 0.865-0.512 1.744-0.813 2.639-0.905 0.894-0.091 1.602-0.068 2.121 0.071v0l0.703 0.18c0.744 2.381 1.141 3.909 1.192 4.585 0.045 0.679-0.152 1.148-0.59 1.407-0.444 0.263-1.115 0.417-2.014 0.461-0.898 0.045-1.626 0.232-2.184 0.563-0.552 0.327-1.36 1.49-2.423 3.489v0l10.669 18.034c0.117 0.198 0.162 0.35 0.136 0.455v0c0.021 0.336-0.509 0.824-1.591 1.464-1.075 0.636-2.126 1.148-3.152 1.537-1.027 0.389-1.599 0.484-1.716 0.286v0l-14.379-24.304c-0.309-0.522 0.272-1.219 1.743-2.09 1.465-0.867 2.467-1.107 3.004-0.719v0z" fill="#d41a2d" data-fill-palette-color="accent"></path><path d="M200.806 183.724v0l-0.316 0.181-2.249 0.88c-1.567 0.788-2.744 1.622-3.531 2.5v0c-1.083 1.325-1.045 2.506 0.114 3.545v0c0.452 0.405 1.042 0.484 1.77 0.235 0.728-0.238 1.31-0.443 1.745-0.615 0.431-0.167 1.054-0.424 1.87-0.77v0c2.804-1.311 5.217-1.988 7.24-2.031 2.028-0.048 3.581 0.41 4.657 1.374v0c2.35 2.104 3.678 4.417 3.986 6.94 0.317 2.522-0.481 4.852-2.394 6.988-1.908 2.131-3.69 3.552-5.346 4.261-1.656 0.709-3.374 1.007-5.154 0.893v0c-0.16 0.063-0.294 0.046-0.403-0.052-0.114-0.102-0.239-0.251-0.373-0.447-0.13-0.2-0.292-0.945-0.487-2.233-0.19-1.294-0.12-2.126 0.211-2.495v0c0.098-0.109 0.255-0.17 0.472-0.182v0c2.53-0.441 4.429-1.369 5.694-2.783v0c0.707-0.79 1.012-1.585 0.914-2.385-0.099-0.8-0.416-1.44-0.951-1.919-0.535-0.479-1.177-0.647-1.926-0.502-0.743 0.15-1.576 0.411-2.499 0.783-0.918 0.377-1.416 0.577-1.494 0.602-0.077 0.034-0.189 0.075-0.334 0.122-0.146 0.048-0.271 0.104-0.376 0.169v0c-1.996 0.807-3.974 1.237-5.932 1.291-1.959 0.054-3.588-0.501-4.888-1.664v0c-2.267-2.029-3.383-4.083-3.35-6.16 0.033-2.087 1.19-4.404 3.47-6.952v0c0.861-0.962 1.794-1.779 2.8-2.452v0c1.378-0.911 2.508-1.431 3.391-1.559v0l0.034-0.039c0.345-0.103 0.635-0.087 0.87 0.048 0.235 0.135 0.64 0.535 1.216 1.201v0c1.387 1.757 1.903 2.833 1.549 3.227z" fill="#d41a2d" data-fill-palette-color="accent"></path><path d="M234.264 168.718v0c-1.555 3.752-3.649 5.935-6.284 6.55-2.641 0.613-6.591-0.171-11.851-2.35v0c-3.79-1.571-6.536-3.101-8.237-4.592-1.704-1.484-2.638-3.049-2.801-4.696-0.155-1.65 0.313-3.79 1.403-6.42 1.09-2.63 2.281-4.466 3.574-5.509 1.296-1.049 3.074-1.476 5.334-1.279 2.26 0.196 5.234 1.059 8.921 2.586v0c0.206 0.085 0.416 0.172 0.628 0.261 0.206 0.085 0.229 0.578 0.068 1.478-0.168 0.897-0.492 1.926-0.973 3.086v0l-3.354 8.093c4.129 1.628 6.582 2.297 7.359 2.008v0c0.415-0.198 0.767-0.649 1.059-1.352v0c1.905-4.596 2.977-7.83 3.216-9.702v0c-0.003-0.084 0.002-0.143 0.016-0.175v0c0.031-0.274 0.253-0.42 0.668-0.437 0.419-0.008 1.276 0.257 2.572 0.794 1.296 0.537 1.898 1.115 1.807 1.735v0c-0.035 1.67-1.077 4.977-3.125 9.921zM212.376 162.48v0l4.11 1.703 2.2-5.308c-4.126-1.544-6.327-1.984-6.603-1.32v0c-0.494 1.193-0.728 2.248-0.7 3.166 0.03 0.911 0.361 1.498 0.993 1.759z" fill="#d41a2d" data-fill-palette-color="accent"></path><path d="M0 121.874c0-9.418 7.635-17.053 17.053-17.053 9.418 0 17.053 7.635 17.052 17.053 0 9.418-7.635 17.053-17.052 17.052-9.418 0-17.053-7.635-17.053-17.052z" fill="#d41a2d" data-fill-palette-color="accent"></path><path d="M210.326 121.874c0-9.418 7.635-17.053 17.053-17.053 9.418 0 17.053 7.635 17.052 17.053 0 9.418-7.635 17.053-17.052 17.052-9.418 0-17.053-7.635-17.053-17.052z" fill="#d41a2d" data-fill-palette-color="accent"></path></g><g id="text-1"></g></svg></g></svg></g></svg></g><defs></defs></svg><rect width="395.52" height="139.56469025156525" fill="none" stroke="none" visibility="hidden"></rect></g></svg></g></svg>